<?xml version="1.0" standalone="no"?>
<!DOCTYPE svg PUBLIC "-//W3C//DTD SVG 20010904//EN"
 "http://www.w3.org/TR/2001/REC-SVG-20010904/DTD/svg10.dtd">
<svg version="1.0" xmlns="http://www.w3.org/2000/svg"
 width="100.000000pt" height="100.000000pt" viewBox="0 0 100.000000 100.000000"
 preserveAspectRatio="xMidYMid meet">
<metadata>
Created by potrace 1.11, written by Peter Selinger 2001-2013
</metadata>
<g transform="translate(0.000000,100.000000) scale(0.100000,-0.100000)"
fill="#000000" stroke="none">
<path d="M178 964 c-38 -20 -48 -43 -48 -112 0 -101 67 -192 142 -192 41 0 98
26 136 63 36 34 72 96 72 122 0 11 7 15 22 13 16 -2 24 -12 29 -35 14 -72 105
-152 181 -160 53 -6 102 24 135 82 19 33 23 52 21 115 -3 72 -4 75 -37 97 -34
23 -38 23 -330 23 -242 -1 -301 -4 -323 -16z m363 -43 c-13 -24 -69 -23 -82 2
-9 15 -4 17 41 17 47 0 50 -2 41 -19z"/>
<path d="M367 590 c-41 -22 -64 -28 -85 -24 -17 4 -32 1 -37 -5 -10 -17 26
-73 63 -97 28 -19 30 -23 16 -35 -12 -9 -17 -10 -23 -1 -8 14 -121 -1 -152
-21 -23 -14 -24 -32 -4 -179 22 -166 24 -176 41 -193 22 -21 99 -20 122 3 22
22 61 337 43 355 -21 21 7 47 50 47 22 0 53 7 69 15 27 14 33 14 60 0 16 -8
54 -15 86 -15 54 0 59 2 101 45 54 53 55 80 3 80 -19 0 -61 13 -93 29 -52 26
-62 28 -94 18 -23 -7 -44 -7 -60 -1 -36 13 -45 12 -106 -21z"/>
</g>
</svg>
